<?xml version="1.0" encoding="utf-8"?>
<svg version="1.1" id="Layer_1" xmlns="http://www.w3.org/2000/svg" xmlns:xlink="http://www.w3.org/1999/xlink" x="0px" y="0px"
	 viewBox="-70 24.1 90 72" style="enable-background:new -70 24.1 90 72; fill: #a1352a;" xml:space="preserve">
<path d="M-68.3,37h53.2c1,5,5.5,9.1,11,9.1s10-4.1,11-9.1h11.4c0.9,0,1.7-0.6,1.7-1.5c0-0.9-0.8-1.5-1.7-1.5H7
	c-0.7-6-5.4-9.9-11.1-9.9S-14.6,28-15.2,34h-53.1c-0.9,0-1.7,0.6-1.7,1.5S-69.2,37-68.3,37z M-4.1,27.2c4.3,0,7.8,3.5,7.8,7.8
	s-3.5,7.8-7.8,7.8s-7.8-3.5-7.8-7.8C-11.9,30.7-8.4,27.2-4.1,27.2z"/>
<path d="M18.3,59h-45.5c-0.7-6-5.4-9.9-11.1-9.9S-48.7,53-49.4,59h-18.9c-0.9,0-1.7,0.6-1.7,1.5s0.8,1.5,1.7,1.5h19
	c1,5,5.5,9.1,11,9.1s10-4.1,11-9.1h45.6c0.9,0,1.7-0.6,1.7-1.5S19.2,59,18.3,59z M-38.3,67.8c-4.3,0-7.8-3.5-7.8-7.8
	s3.5-7.8,7.8-7.8s7.8,3.5,7.8,7.8S-34,67.8-38.3,67.8z"/>
<path d="M18.3,84H-4.4c-0.7-6-5.4-9.9-11.1-9.9S-26,78-26.6,84h-41.7c-0.9,0-1.7,0.6-1.7,1.5s0.8,1.5,1.7,1.5h41.8
	c1,6,5.5,9.1,11,9.1s10-3.1,11-9.1h22.8c0.9,0,1.7-0.6,1.7-1.5S19.2,84,18.3,84z M-15.5,92.9c-4.3,0-7.8-3.5-7.8-7.8
	s3.5-7.8,7.8-7.8s7.8,3.5,7.8,7.8S-11.2,92.9-15.5,92.9z"/>
</svg>
