<?xml version="1.0" encoding="utf-8"?>
<!-- Generator: Adobe Illustrator 19.1.0, SVG Export Plug-In . SVG Version: 6.00 Build 0)  -->
<svg version="1.1" id="Layer_1" xmlns="http://www.w3.org/2000/svg" xmlns:xlink="http://www.w3.org/1999/xlink" x="0px" y="0px"
	 viewBox="0 0 26.2 31.9" style="enable-background:new 0 0 26.2 31.9;" xml:space="preserve">
<style type="text/css">
	.st0{fill:#2772A4;}
	.st1{fill:#3498DB;}
	.st2{fill:#FFFFFF;}
</style>
<path class="st0" d="M23.7,28H2.5C1.1,28,0,26.8,0,25.5V3.6C0,2.2,1.1,1,2.5,1h21.2c1.4,0,2.5,1.1,2.5,2.5v21.9
	C26.2,26.8,25,28,23.7,28z"/>
<path class="st1" d="M23.7,0H2.5C1.1,0,0.2,1.2,0.2,2.6v21.9c0,1.4,0.9,2.5,2.3,2.5h7.9l2.7,4.9l2.5-4.9h8c1.4,0,2.6-1.2,2.6-2.5
	V2.6C26.2,1.2,25,0,23.7,0z"/>
<g>
	<path class="st2" d="M19.3,25.5c-0.9,0-1.8-0.5-1.8-1.5v-7.9h-1.7V3.9c0-0.7,0.3-1.3,0.8-1.7c0.5-0.4,1.1-0.6,1.8-0.6
		c0.7,0,1.4,0.2,1.8,0.6c0.5,0.4,0.8,1,0.8,1.7v20.2c0,0.4-0.2,0.8-0.5,1.1C20.2,25.4,19.7,25.5,19.3,25.5z"/>
	<path class="st2" d="M8.6,25.6c-1.2,0-1.8-0.8-1.8-1.5V11.2c-0.6,0-1.1-0.2-1.5-0.5c-0.4-0.3-0.7-0.8-0.7-1.3V2.2
		c0-0.2,0.1-0.3,0.2-0.4C5,1.7,5.2,1.6,5.4,1.6c0.4,0,0.7,0.2,0.7,0.6v5.2h0.6V2.2c0-0.4,0.4-0.6,0.7-0.6c0.3,0,0.7,0.2,0.7,0.6v5.2
		h0.7V2.2c0-0.4,0.4-0.6,0.7-0.6c0.2,0,0.4,0.1,0.5,0.2c0.1,0.1,0.2,0.2,0.2,0.5v5.2H11V2.2C11,2,11,1.9,11.2,1.8
		c0.1-0.1,0.3-0.2,0.5-0.2c0.4,0,0.7,0.2,0.7,0.6v7.3c0,0.9-1.1,1.6-2.1,1.7v12.9C10.3,24.8,9.7,25.6,8.6,25.6z"/>
</g>
</svg>
