<?xml version="1.0" encoding="utf-8"?>
<!-- Generator: Adobe Illustrator 19.1.0, SVG Export Plug-In . SVG Version: 6.00 Build 0)  -->
<svg version="1.1" id="Layer_1" xmlns="http://www.w3.org/2000/svg" xmlns:xlink="http://www.w3.org/1999/xlink" x="0px" y="0px"
	 viewBox="0 0 26.1 27.9" style="enable-background:new 0 0 26.1 27.9;" xml:space="preserve">
<style type="text/css">
	.st0{fill:#AD392D;}
	.st1{fill:#E74C3C;}
	.st2{fill:#AD392D;stroke:#EAEAEA;stroke-miterlimit:10;}
	.st3{fill:#F2F2F2;}
</style>
<circle class="st0" cx="13.1" cy="14.9" r="13.1"/>
<circle class="st1" cx="13.1" cy="13.1" r="13.1"/>
<circle class="st2" cx="13.4" cy="13.1" r="11.1"/>
<g>
	<path class="st3" d="M13.4,12.5c0.9,0,1.7-0.3,2.3-1c0.6-0.6,1-1.4,1-2.3c0-0.9-0.3-1.7-1-2.3c-0.6-0.6-1.4-1-2.3-1
		c-0.9,0-1.7,0.3-2.3,1c-0.6,0.6-1,1.4-1,2.3c0,0.9,0.3,1.7,1,2.3S12.5,12.5,13.4,12.5z"/>
	<path class="st3" d="M19.4,16c0-0.3-0.1-0.6-0.1-0.9c-0.1-0.3-0.1-0.6-0.2-0.9c-0.1-0.3-0.2-0.6-0.4-0.8c-0.2-0.3-0.3-0.5-0.5-0.7
		c-0.2-0.2-0.4-0.3-0.7-0.5c-0.3-0.1-0.6-0.2-1-0.2c-0.1,0-0.2,0.1-0.4,0.2c-0.2,0.1-0.4,0.3-0.6,0.4c-0.2,0.2-0.5,0.3-0.9,0.4
		c-0.4,0.1-0.8,0.2-1.1,0.2c-0.4,0-0.8-0.1-1.1-0.2c-0.4-0.1-0.7-0.3-0.9-0.4c-0.2-0.2-0.5-0.3-0.6-0.4c-0.2-0.1-0.3-0.2-0.4-0.2
		c-0.3,0-0.7,0.1-1,0.2s-0.5,0.3-0.7,0.5c-0.2,0.2-0.4,0.4-0.5,0.7c-0.2,0.3-0.3,0.6-0.4,0.8c-0.1,0.3-0.2,0.6-0.2,0.9
		c-0.1,0.3-0.1,0.6-0.1,0.9c0,0.3,0,0.6,0,0.9c0,0.7,0.2,1.2,0.6,1.6c0.4,0.4,1,0.6,1.7,0.6h7.5c0.7,0,1.2-0.2,1.7-0.6
		c0.4-0.4,0.6-0.9,0.6-1.6C19.5,16.5,19.5,16.3,19.4,16z"/>
</g>
</svg>
