<?xml version="1.0" encoding="utf-8"?>
<!-- Generator: Adobe Illustrator 19.1.0, SVG Export Plug-In . SVG Version: 6.00 Build 0)  -->
<svg version="1.1" id="Capa_1" xmlns="http://www.w3.org/2000/svg" xmlns:xlink="http://www.w3.org/1999/xlink" x="0px" y="0px"
	 viewBox="293 -293.8 612 611.7" style="enable-background:new 293 -293.8 612 611.7;" xml:space="preserve">
<g>
	<g>
		<path d="M880.6-107.1c-32.3-75.2-87.1-129.9-162.9-162.3c-37.9-16.2-77.6-24.4-119.1-24.4c-41.5,0-80.9,8.2-118.8,24.4
			c-75.2,32.3-130.3,86.9-162.6,162.3C300.9-69.4,293-29.8,293,11.7c0,41.5,7.9,81.4,24.1,119.1c32.3,75.3,87.4,130.3,162.6,162.6
			c37.9,16.2,77.3,24.4,118.8,24.4s81.2-8.3,119.1-24.4c75.9-32.4,130.7-87.4,163-162.6C896.8,92.9,905,53.2,905,11.7
			C905-29.8,896.8-69.2,880.6-107.1z M831.7,146.9c-24,41.2-56.9,73.9-98.4,98c-41.2,24-86.3,36.1-134.8,36.1
			c-36.5,0-71.3-7-104.4-21.4c-33.1-14.4-61.7-33.3-85.7-57.2c-23.9-23.9-43-52.8-57.2-86C337,83.3,330.1,48.1,330.1,11.7
			c0-48.5,11.9-93.4,35.8-134.5c24-41.2,56.9-73.9,98-98C505.1-245,550-257,598.5-257c48.5,0,93.6,12.1,134.8,36.1
			c41.4,24.2,74.3,56.9,98.4,98c24.1,41.2,36.1,86,36.1,134.5C867.9,60.2,855.9,105.4,831.7,146.9z"/>
		<path d="M617.9,9v-173.3c0-10.4-9-18.7-19.4-18.7c-9.7,0-18.4,8.4-18.4,18.7v176c0,0.3,0.7,1.7,0.7,2.7c-0.7,6,1,11,5,15.1
			l100.1,100c6.7,6.7,19.1,6.7,25.8,0c7.7-7.7,7.2-18.9,0-26.1L617.9,9z"/>
	</g>
</g>
</svg>
