<?xml version="1.0" encoding="utf-8"?>
<!-- Generator: Adobe Illustrator 19.1.0, SVG Export Plug-In . SVG Version: 6.00 Build 0)  -->
<svg version="1.0" id="Layer_1" xmlns="http://www.w3.org/2000/svg" xmlns:xlink="http://www.w3.org/1999/xlink" x="0px" y="0px"
	 viewBox="0 0 323.9 272.6" enable-background="new 0 0 323.9 272.6" xml:space="preserve">
<g>
	<path fill="#ABAAAA" d="M238.7,215.2c0-1.7,0-2.6,0-3.6c0-64.5,0-129,0-193.5c0-10.3,7.2-17.9,16.8-17.9c8.9-0.1,16.3,6.7,17,15.7
		c0.1,1.2,0.1,2.5,0.1,3.7c0,64.2,0,128.3,0,192.5c0,1,0,2,0,3.6c0.9-0.9,1.5-1.4,2-1.9c6.7-6.7,13.4-13.4,20.2-20.1
		c7-7,17.5-7.2,24.2-0.5c6.7,6.7,6.7,17.2-0.4,24.2c-16.9,16.7-33.9,33.3-50.9,49.8c-5.1,4.9-11.1,7.3-18,4.4c-2.5-1.1-5-2.7-7-4.7
		c-16.8-16.6-33.5-33.4-50.2-50.2c-6.5-6.5-6.7-16.9-0.5-23.5c6.3-6.6,16.9-7.1,23.6-0.8c7.1,6.7,13.8,13.7,20.8,20.6
		C236.9,213.5,237.6,214.1,238.7,215.2z"/>
	<path fill="#ABAAAA" d="M102.8,0c28,0,56,0,84,0c5.7,0,10.7,1.4,14.5,5.8c4.6,5.4,5.6,11.4,2.8,17.9c-2.8,6.5-8.1,9.7-15.1,10.2
		c-2.4,0.1-4.8,0-7.2,0c-54.8,0-109.6,0-164.4,0c-7.3,0-13.5-4.1-16.1-10.6C-1.3,17,0.2,9.7,5.1,4.9c3-3,6.7-4.6,11-4.8
		C19,0,21.9,0,24.8,0C50.8,0,76.8,0,102.8,0z"/>
	<path fill="#ABAAAA" d="M80.1,146.3c-20.5,0-41,0-61.5,0c-7.6,0-13.5-2.8-16.9-9.7c-5.3-10.8,2.4-23.6,14.4-24.1c0.5,0,1,0,1.5,0
		c41.8,0,83.6,0,125.4,0c10.1,0,17.7,7.4,17.6,17.1c-0.1,8.6-6.8,15.8-15.3,16.5c-1.6,0.1-3.2,0.2-4.7,0.2
		C120.4,146.3,100.2,146.3,80.1,146.3z"/>
	<path fill="#ABAAAA" d="M46.5,258.1c-9.8,0-19.7,0-29.5,0c-9.6,0-16.9-7.4-16.9-17c0-9.3,7.4-16.7,16.9-16.7c19.7,0,39.5,0,59.2,0
		c8.4,0,15.9,6.6,16.9,14.5c1,8.9-4.3,16.7-12.9,18.7c-1.3,0.3-2.6,0.4-4,0.4C66.3,258.1,56.4,258.1,46.5,258.1z"/>
</g>
</svg>
