<?xml version="1.0" encoding="utf-8"?>
<!-- Generator: Adobe Illustrator 19.1.0, SVG Export Plug-In . SVG Version: 6.00 Build 0)  -->
<svg version="1.1" id="Capa_1" xmlns="http://www.w3.org/2000/svg" xmlns:xlink="http://www.w3.org/1999/xlink" x="0px" y="0px"
	 viewBox="145.6 -61 114.7 146" style="enable-background:new 145.6 -61 114.7 146;" xml:space="preserve">
<g>
	<path d="M192.6-61c-1.4,0-2.6,0.5-3.7,1.5s-1.5,2.3-1.5,3.7v33.9c0,1.4-0.5,2.6-1.5,3.7c-1,1-2.3,1.5-3.7,1.5
		c-1.4,0-2.6-0.5-3.7-1.5s-1.5-2.3-1.5-3.7v-33.9c0-1.4-0.5-2.6-1.5-3.7c-1-1-2.3-1.5-3.7-1.5s-2.6,0.5-3.7,1.5
		c-1,1-1.5,2.3-1.5,3.7v33.9c0,1.4-0.5,2.6-1.5,3.7s-2.3,1.5-3.7,1.5c-1.4,0-2.6-0.5-3.7-1.5s-1.5-2.3-1.5-3.7v-33.9
		c0-1.4-0.5-2.6-1.5-3.7c-1-1-2.3-1.5-3.7-1.5c-1.4,0-2.6,0.5-3.7,1.5c-1,1-1.5,2.3-1.5,3.7v52.1c0,3.3,1,6.3,2.9,9
		c1.9,2.7,4.4,4.6,7.5,5.7v63.5c0,2.8,1,5.3,3.1,7.3c2.1,2.1,4.5,3.1,7.3,3.1h10.4c2.8,0,5.3-1,7.3-3.1c2.1-2.1,3.1-4.5,3.1-7.3
		V11.1c3.1-1.1,5.6-3,7.5-5.7c1.9-2.7,2.9-5.7,2.9-9v-52.1c0-1.4-0.5-2.6-1.5-3.7C195.2-60.5,194-61,192.6-61z"/>
	<path d="M258.8-59.5c-1-1-2.3-1.5-3.7-1.5h-20.9c-7.2,0-13.3,2.6-18.4,7.7c-5.1,5.1-7.7,11.2-7.7,18.4v65.2c0,0.7,0.3,1.3,0.8,1.8
		c0.5,0.5,1.1,0.8,1.8,0.8h18.2v41.7c0,2.8,1,5.3,3.1,7.3c2.1,2.1,4.5,3.1,7.3,3.1h10.4c2.8,0,5.3-1,7.3-3.1
		c2.1-2.1,3.1-4.5,3.1-7.3V-55.8C260.4-57.2,259.8-58.4,258.8-59.5z"/>
</g>
</svg>
