<?xml version="1.0" encoding="utf-8"?>
<!-- Generator: Adobe Illustrator 19.1.0, SVG Export Plug-In . SVG Version: 6.00 Build 0)  -->
<svg version="1.1" id="Capa_1" xmlns="http://www.w3.org/2000/svg" xmlns:xlink="http://www.w3.org/1999/xlink" x="0px" y="0px"
	 viewBox="136.5 -54.5 133 133" style="enable-background:new 136.5 -54.5 133 133;" xml:space="preserve">
<path d="M262.6,26.7L245.7,9.7c-4.6-4.6-10.1-6.8-16.6-6.8c-6.6,0-12.3,2.4-16.9,7.2L205,2.9c4.8-4.7,7.2-10.3,7.2-17
	c0-6.5-2.3-12-6.8-16.5l-16.8-16.9c-4.5-4.6-10-6.9-16.6-6.9c-6.5,0-12,2.3-16.5,6.8l-12,11.9c-4.6,4.5-6.9,10-6.9,16.5
	s2.3,12.1,6.8,16.6l16.9,16.9c4.6,4.6,10.1,6.8,16.6,6.8c6.6,0,12.3-2.4,16.9-7.2l7.2,7.2c-4.8,4.7-7.2,10.3-7.2,17
	c0,6.5,2.3,12,6.8,16.5l16.8,16.9c4.5,4.6,10,6.9,16.6,6.9c6.5,0,12-2.3,16.5-6.8l12-11.9c4.6-4.5,6.9-10,6.9-16.5
	C269.5,36.8,267.2,31.2,262.6,26.7z M193.9-8.2c-0.2-0.2-0.7-0.7-1.5-1.5s-1.4-1.5-1.8-1.8c-0.3-0.3-0.8-0.7-1.5-1.2
	c-0.7-0.5-1.4-0.9-2.1-1.1s-1.4-0.3-2.2-0.3c-2.2,0-4,0.8-5.5,2.3c-1.5,1.5-2.3,3.4-2.3,5.5c0,0.8,0.1,1.6,0.3,2.2
	c0.2,0.7,0.5,1.4,1.1,2.1c0.5,0.7,0.9,1.2,1.2,1.5c0.3,0.3,0.9,0.9,1.8,1.8c0.9,0.8,1.4,1.3,1.5,1.5c-1.6,1.7-3.6,2.5-5.9,2.5
	c-2.2,0-4.1-0.7-5.5-2.2l-16.9-16.9c-1.5-1.5-2.3-3.4-2.3-5.5c0-2.1,0.8-3.9,2.3-5.5l12-11.9c1.6-1.5,3.4-2.2,5.5-2.2
	c2.2,0,4,0.8,5.5,2.3l16.8,16.9c1.5,1.5,2.3,3.4,2.3,5.5C196.6-11.9,195.7-9.9,193.9-8.2z M251.6,48.7l-12,11.9
	c-1.5,1.4-3.4,2.1-5.5,2.1c-2.2,0-4.1-0.7-5.5-2.2l-16.8-16.9c-1.5-1.5-2.3-3.4-2.3-5.5c0-2.3,0.9-4.3,2.7-5.9
	c0.2,0.2,0.7,0.7,1.5,1.5c0.8,0.9,1.4,1.5,1.8,1.8c0.3,0.3,0.8,0.7,1.5,1.2c0.7,0.5,1.4,0.9,2.1,1.1c0.7,0.2,1.4,0.3,2.2,0.3
	c2.2,0,4-0.8,5.5-2.3c1.5-1.5,2.3-3.4,2.3-5.5c0-0.8-0.1-1.6-0.3-2.2c-0.2-0.7-0.5-1.4-1.1-2.1c-0.5-0.7-0.9-1.2-1.2-1.5
	c-0.3-0.3-0.9-0.9-1.8-1.8c-0.9-0.8-1.4-1.3-1.5-1.5c1.6-1.7,3.6-2.6,5.9-2.6c2.2,0,4,0.8,5.5,2.3l16.9,16.9
	c1.5,1.5,2.3,3.4,2.3,5.5C253.8,45.4,253.1,47.2,251.6,48.7z"/>
</svg>
