<?xml version="1.0" encoding="utf-8"?>
<!-- Generator: Adobe Illustrator 19.1.0, SVG Export Plug-In . SVG Version: 6.00 Build 0)  -->
<svg version="1.1" id="Capa_1" xmlns="http://www.w3.org/2000/svg" xmlns:xlink="http://www.w3.org/1999/xlink" x="0px" y="0px"
	 viewBox="135.2 -45.4 135.6 114.7" style="enable-background:new 135.2 -45.4 135.6 114.7;" xml:space="preserve">
<g>
	<path d="M182.1-45.4h-31.3c-4.3,0-8,1.5-11.1,4.6c-3,3-4.6,6.7-4.6,11.1V1.6c0,4.3,1.5,8,4.6,11.1c3,3,6.7,4.6,11.1,4.6h18.2
		c2.2,0,4,0.8,5.5,2.3c1.5,1.5,2.3,3.4,2.3,5.5v2.6c0,5.8-2,10.7-6.1,14.7c-4.1,4.1-9,6.1-14.7,6.1h-5.2c-1.4,0-2.6,0.5-3.7,1.5
		c-1,1-1.5,2.3-1.5,3.7v10.4c0,1.4,0.5,2.6,1.5,3.7c1,1,2.3,1.5,3.7,1.5h5.2c5.6,0,11-1.1,16.2-3.3s9.6-5.2,13.3-8.9
		c3.7-3.7,6.7-8.2,8.9-13.3c2.2-5.1,3.3-10.5,3.3-16.2v-57.4c0-4.3-1.5-8-4.6-11.1C190.2-43.8,186.5-45.4,182.1-45.4z"/>
	<path d="M266.2-40.8c-3-3-6.7-4.6-11.1-4.6h-31.3c-4.3,0-8,1.5-11.1,4.6c-3,3-4.6,6.7-4.6,11.1V1.6c0,4.3,1.5,8,4.6,11.1
		c3,3,6.7,4.6,11.1,4.6h18.2c2.2,0,4,0.8,5.5,2.3c1.5,1.5,2.3,3.4,2.3,5.5v2.6c0,5.8-2,10.7-6.1,14.7c-4.1,4.1-9,6.1-14.7,6.1h-5.2
		c-1.4,0-2.6,0.5-3.7,1.5c-1,1-1.5,2.3-1.5,3.7v10.4c0,1.4,0.5,2.6,1.5,3.7c1,1,2.3,1.5,3.7,1.5h5.2c5.6,0,11-1.1,16.2-3.3
		c5.1-2.2,9.6-5.2,13.3-8.9c3.7-3.7,6.7-8.2,8.9-13.3c2.2-5.1,3.3-10.5,3.3-16.2v-57.4C270.8-34.1,269.3-37.8,266.2-40.8z"/>
</g>
</svg>
