<?xml version="1.0" encoding="utf-8"?>
<!-- Generator: Adobe Illustrator 19.1.0, SVG Export Plug-In . SVG Version: 6.00 Build 0)  -->
<svg version="1.1" id="Capa_1" xmlns="http://www.w3.org/2000/svg" xmlns:xlink="http://www.w3.org/1999/xlink" x="0px" y="0px"
	 viewBox="145.6 -45.4 114.7 114.7" style="enable-background:new 145.6 -45.4 114.7 114.7;" xml:space="preserve">
<path d="M260.1,43.5c-0.3-1-2.4-2.4-6.2-4.3c-1-0.6-2.5-1.4-4.4-2.4c-1.9-1-3.6-2-5.2-2.9c-1.5-0.9-3-1.7-4.4-2.5
	c-0.2-0.2-0.9-0.6-2-1.4c-1.1-0.8-2.1-1.4-2.9-1.8c-0.8-0.4-1.6-0.6-2.3-0.6c-1.1,0-2.4,0.8-4.1,2.3s-3.1,3.2-4.5,5.1
	c-1.4,1.8-2.8,3.5-4.3,5.1c-1.5,1.5-2.8,2.3-3.7,2.3c-0.5,0-1.1-0.1-1.8-0.4c-0.7-0.3-1.3-0.5-1.7-0.7c-0.4-0.2-1-0.6-2-1.1
	c-0.9-0.6-1.4-0.9-1.5-0.9c-7.4-4.1-13.8-8.9-19.1-14.2c-5.3-5.3-10-11.7-14.2-19.1c-0.1-0.1-0.4-0.6-0.9-1.5c-0.6-0.9-1-1.6-1.1-2
	c-0.2-0.4-0.4-0.9-0.7-1.7c-0.3-0.7-0.4-1.3-0.4-1.8c0-1,0.8-2.2,2.3-3.7c1.5-1.5,3.2-3,5.1-4.3c1.8-1.4,3.5-2.9,5.1-4.5
	c1.5-1.6,2.3-3,2.3-4.1c0-0.8-0.2-1.5-0.6-2.3c-0.4-0.8-1-1.8-1.8-2.9c-0.8-1.1-1.3-1.8-1.4-2c-0.8-1.4-1.7-2.8-2.5-4.4
	c-0.9-1.5-1.8-3.3-2.9-5.2c-1-1.9-1.8-3.4-2.4-4.4c-1.9-3.8-3.3-5.9-4.3-6.2c-0.4-0.2-1-0.2-1.7-0.2c-1.5,0-3.4,0.3-5.7,0.8
	c-2.4,0.5-4.2,1.1-5.6,1.7c-2.7,1.1-5.6,4.5-8.6,9.9c-2.8,5.1-4.2,10.2-4.2,15.2c0,1.5,0.1,2.9,0.3,4.3c0.2,1.4,0.5,2.9,1,4.7
	c0.5,1.7,0.9,3,1.2,3.9s0.9,2.3,1.7,4.5c0.8,2.2,1.3,3.5,1.5,4c1.9,5.3,4.2,10.1,6.8,14.3c4.3,7,10.1,14.1,17.6,21.6
	s14.6,13.3,21.6,17.6c4.2,2.6,8.9,4.9,14.3,6.8c0.5,0.2,1.8,0.7,4,1.5c2.2,0.8,3.7,1.4,4.5,1.7c0.8,0.3,2.1,0.7,3.9,1.2
	c1.7,0.5,3.3,0.8,4.7,1c1.4,0.2,2.8,0.3,4.3,0.3c5,0,10-1.4,15.2-4.2c5.5-3,8.8-5.9,9.9-8.6c0.6-1.4,1.2-3.2,1.7-5.6
	c0.5-2.4,0.8-4.3,0.8-5.7C260.4,44.5,260.3,43.9,260.1,43.5z"/>
</svg>
