<?xml version="1.0" encoding="utf-8"?>
<!-- Generator: Adobe Illustrator 19.1.0, SVG Export Plug-In . SVG Version: 6.00 Build 0)  -->
<svg version="1.1" id="Capa_1" xmlns="http://www.w3.org/2000/svg" xmlns:xlink="http://www.w3.org/1999/xlink" x="0px" y="0px"
	 viewBox="140.4 -50.6 125.1 125.1" style="enable-background:new 140.4 -50.6 125.1 125.1;" xml:space="preserve">
<path d="M258.7-43.7c-4.6-4.6-10.1-6.9-16.6-6.9h-78.2c-6.5,0-12,2.3-16.6,6.9c-4.6,4.6-6.9,10.1-6.9,16.6v78.2
	c0,6.5,2.3,12,6.9,16.6c4.6,4.6,10.1,6.9,16.6,6.9h78.2c6.5,0,12-2.3,16.6-6.9c4.6-4.6,6.9-10.1,6.9-16.6v-78.2
	C265.6-33.6,263.3-39.1,258.7-43.7z M236.2-2.4c0.1,0.5,0.1,1.2,0.1,2.2c0,4.6-0.7,9.1-2,13.7c-1.3,4.6-3.4,9-6.1,13.2
	c-2.7,4.2-6,7.9-9.8,11.2c-3.8,3.2-8.4,5.8-13.7,7.7c-5.3,1.9-11,2.9-17.1,2.9c-9.4,0-18.2-2.6-26.2-7.7c1.3,0.2,2.7,0.2,4.1,0.2
	c7.9,0,15-2.4,21.3-7.3c-3.7-0.1-7-1.2-9.9-3.4c-2.9-2.2-4.9-5.1-6.1-8.5c1.4,0.2,2.5,0.3,3.2,0.3c1.2,0,2.6-0.2,4.2-0.7
	c-4-0.8-7.3-2.7-10-5.9c-2.7-3.2-4.1-6.8-4.1-10.9V4.6c2.9,1.4,5.6,2.1,8.1,2.1c-4.9-3.3-7.4-8.1-7.4-14.3c0-3,0.8-5.9,2.4-8.6
	c4.3,5.3,9.5,9.5,15.6,12.6c6.1,3.2,12.7,4.9,19.7,5.3c-0.3-1-0.4-2.3-0.4-3.9c0-4.7,1.7-8.8,5-12.1c3.3-3.3,7.4-5,12.1-5
	c5,0,9.2,1.8,12.5,5.4c3.7-0.7,7.4-2.1,10.9-4.2c-1.4,4.2-3.9,7.4-7.6,9.5c3.5-0.5,6.8-1.4,9.9-2.8C242.4-7.8,239.6-4.9,236.2-2.4z"
	/>
</svg>
